<svg width="227" height="211" viewBox="0 0 227 211" fill="none" xmlns="http://www.w3.org/2000/svg">
  <path
    d="M0 114.516C0 51.8316 50.8157 0 113.5 0C176.184 0 227 51.8316 227 114.516C227 167.33 184.186 211 131.372 211H95.6281C42.8141 211 0 167.33 0 114.516Z"
    fill="black" />
  <rect x="77.7905" y="41.1472" width="24.0949" height="8.99244" rx="4.49622" transform="rotate(2.0777 77.7905 41.1472)"
    stroke="#E8E8E8" stroke-width="6.01391" />
  <rect x="-3.06319" y="2.94965" width="24.0949" height="10.1956" rx="5.09781"
    transform="matrix(-0.999822 -0.0188787 -0.0188787 0.999822 162.504 38.2025)" stroke="#E8E8E8"
    stroke-width="6.01391" />
  <path
    d="M113.058 44.4875L128.012 44.2493C128.956 44.2343 129.733 44.9873 129.748 45.9308C129.763 46.8745 129.01 47.6518 128.066 47.6668L113.112 47.905C112.169 47.9199 111.391 47.1671 111.376 46.2235C111.361 45.2801 112.114 44.5027 113.058 44.4875Z"
    fill="#E8E8E8" stroke="#E8E8E8" stroke-width="3.51836" />
  <path
    d="M89.0702 20.2827C87.27 20.4181 84.849 20.6098 82.9614 21.3857C81.0738 22.1615 80.1099 22.7806 79.6493 23.7677C78.2757 26.7113 82.3498 28.6086 84.933 27.6423C87.5162 26.6761 95.4002 27.5668 95.4002 27.5668C97.1825 27.6334 98.8364 26.7032 99.5658 25.2241C100.878 22.5638 98.8355 20.9898 96.3279 20.5494C93.8202 20.109 90.8704 20.1473 89.0702 20.2827Z"
    fill="#E8E8E8" />
  <path
    d="M154.444 24.6047C156.211 24.9735 158.587 25.4791 160.357 26.4943C162.127 27.5095 163.003 28.249 163.331 29.2877C164.309 32.3851 160.022 33.7354 157.587 32.4407C155.152 31.1461 147.219 31.0019 147.219 31.0019C145.443 30.8357 143.925 29.6979 143.394 28.1363C142.44 25.3277 144.67 24.0333 147.214 23.9234C149.757 23.8135 152.677 24.2359 154.444 24.6047Z"
    fill="#E8E8E8" />
  <path
    d="M122.914 72.5412C126.203 73.8663 129.578 74.9687 133.015 75.8409C130.871 90.3735 126.796 104.48 120.788 118.16C119.148 119.366 117.277 119.725 115.175 119.238C108.46 118.391 101.882 116.685 95.6029 114.16C95.1442 108.508 95.4233 102.82 96.4331 97.2399C98.1407 87.7217 100.165 78.263 102.504 68.8798C109.364 69.7817 116.167 71.0022 122.914 72.5412Z"
    fill="#F8F3F3" />
  <path
    d="M113.446 112.474C115.297 106.219 117.095 99.9481 118.839 93.6623C119.277 92.4878 119.958 91.5521 120.884 90.8544L121.618 90.9064C121.6 92.8814 121.337 94.8465 120.834 96.7566C120.262 93.9655 119.878 94.184 119.681 97.413C120.866 97.6004 121.757 97.1712 122.356 96.1262C122.989 92.4468 123.494 88.7915 123.871 85.1604C123.089 86.2901 122.389 87.4739 121.774 88.7029C121.582 87.951 121.127 87.4264 120.409 87.1297C120.391 85.5634 120.741 84.1117 121.456 82.7746C121.569 82.3271 121.841 81.9773 122.269 81.7249C124.725 81.5314 127.194 81.5828 129.64 81.8783C127.854 92.5803 124.759 103.022 120.424 112.968C117.954 113.766 115.628 113.601 113.446 112.474Z"
    fill="#00852C" />
  <path
    d="M110.17 81.1751L116.83 80.3024C115.913 81.7974 115.351 83.2645 115.147 84.6933C111.36 85.1146 107.606 85.4065 103.97 85.5621C99.2244 84.0004 101.291 82.5381 110.17 81.1751Z"
    fill="#CFE444" />
  <path
    d="M131.256 73.9109C126.195 77.8311 121.793 82.0373 118.528 86.0747C117.599 86.2605 116.835 86.2543 116.291 86.0567C115.747 85.8592 115.437 85.475 115.382 84.9315L113.044 81.5637C119.627 76.7613 126.698 72.7251 133.262 70.0229C131.796 71.6783 131.125 72.9758 131.256 73.9109Z"
    fill="#ACFF5A" />
  <path
    d="M127.067 76.7384C126.351 78.0755 128.553 79.3494 120.408 87.1286C117.19 88.8213 117.347 90.0624 120.882 90.8533C119.956 91.551 119.275 92.4867 118.838 93.6612C117.094 99.947 115.296 106.218 113.444 112.473C111.548 112.561 109.852 112.194 108.354 111.374L110.558 111.53C111.13 108.246 112.562 105.395 114.855 102.976C114.361 102.044 113.661 101.237 112.808 100.616C114.643 95.7823 115.48 90.9207 115.318 86.0296C116.24 85.5206 117.044 84.8229 117.678 83.9822L127.067 76.7384Z"
    fill="#CFE444" />
  <path
    d="M102.149 84.359C102.644 85.5781 103.588 86.1367 104.983 86.0363L104.618 91.178C103.717 93.6698 103.281 96.3459 103.311 99.2057C105.303 99.6057 107.24 100.239 109.083 101.091C108.701 103.3 108.177 105.482 107.513 107.624C106.92 106.688 106.308 106.644 105.677 107.494C106.783 109.04 106.469 110.001 104.734 110.38C102.139 110.192 99.8649 109.293 97.9121 107.682C98.4735 100.316 99.4857 92.9917 100.943 85.7499C101.195 85.0916 101.597 84.6277 102.149 84.359Z"
    fill="#00852C" />
  <path
    d="M103.74 82.7329C104.573 82.1025 105.57 81.9266 106.73 82.2067L107.447 82.518C109.583 83.1559 113.289 81.5504 115.525 81.7148C115.456 81.9681 116.271 80.2712 116.317 80.5296C116.362 80.788 116.737 80.188 116.888 80.4027C117.89 79.688 116.45 84.0746 117.678 83.9815C117.044 84.8222 116.24 85.5198 115.318 86.0289C114.591 85.9138 113.961 86.1157 113.43 86.6332C112.738 87.9946 112.261 89.4549 112.016 90.9623C111.114 91.6041 110.205 92.2779 109.289 92.9836L108.213 92.5383C109.227 92.1177 109.261 91.6285 108.317 91.0692C107.407 90.6448 106.408 90.4473 105.405 90.4937C105.738 88.8674 105.597 87.3809 104.983 86.0345C103.588 86.1349 102.643 85.5763 102.149 84.3572C103.308 84.8365 104.516 85.1679 105.769 85.352C106.019 83.6324 105.462 84.5586 105.944 82.8891L103.74 82.7329Z"
    fill="#E8FD7F" />
  <path
    d="M120.4 87.1284C121.117 87.4251 121.572 87.9497 121.765 88.7016L121.609 90.9051L120.874 90.8531C117.339 90.0622 117.182 88.8211 120.4 87.1284Z"
    fill="#ACFF5A" />
  <path
    d="M104.984 86.0361C105.598 87.3826 105.74 88.869 105.407 90.4953C106.409 90.449 107.409 90.6465 108.319 91.0709C109.263 91.6302 109.228 92.1194 108.214 92.5399L109.29 92.9853C110.186 92.2945 111.096 91.6206 112.017 90.9639C111.151 93.5715 110.469 96.2366 109.975 98.9396C108.451 97.8438 107.322 96.4099 106.589 94.6394C105.937 94.2398 105.175 94.0566 104.412 94.1159L104.62 91.1778L104.984 86.0361Z"
    fill="#E8FD7F" />
  <path
    d="M121.617 90.9053L121.773 88.7017C122.387 87.4727 123.088 86.2889 123.87 85.1592C123.487 88.8304 122.982 92.4877 122.354 96.125C121.756 97.17 120.865 97.5992 119.679 97.4119C119.876 94.1829 120.261 93.9643 120.833 96.7554C121.336 94.8378 121.597 92.8875 121.617 90.9053Z"
    fill="#C9B0B4" />
  <path
    d="M104.616 91.1752L104.407 94.1133C105.17 94.0541 105.932 94.2373 106.585 94.6368C107.318 96.4073 108.447 97.8412 109.971 98.937C109.478 99.5564 109.17 100.302 109.081 101.089C107.237 100.236 105.3 99.6029 103.309 99.2029C103.279 96.3432 103.714 93.667 104.616 91.1752Z"
    fill="#CFE444" />
  <path
    d="M115.318 86.028C115.479 90.9191 114.642 95.7807 112.807 100.614C113.66 101.235 114.36 102.042 114.855 102.974C112.561 105.393 111.129 108.245 110.557 111.528L108.354 111.372C106.932 111.481 105.726 111.15 104.733 110.377C106.468 109.999 106.782 109.037 105.676 107.491C106.307 106.642 106.919 106.685 107.512 107.621C108.176 105.48 108.701 103.298 109.082 101.089C109.172 100.302 109.48 99.5565 109.973 98.9371C110.467 96.2341 111.149 93.569 112.015 90.9614C112.26 89.4541 112.737 87.9938 113.429 86.6324C113.96 86.1149 114.59 85.913 115.318 86.028Z"
    fill="#E8FD7F" />
  <path opacity="0.918"
    d="M125.169 71.9607C125.792 72.4551 126.509 72.7517 127.32 72.8514C129.441 73.6868 131.602 74.4548 133.802 75.1562C134.319 75.6875 134.521 76.3175 134.406 77.0445L134.17 80.378C133.853 81.6672 133.51 83.0484 133.146 84.4887C132.659 85.9125 132.288 87.3593 132.032 88.829C130.405 95.0734 128.548 101.767 126.932 106.632C125.216 111.372 123.239 115.958 120.998 120.388C118.863 120.462 116.922 120.079 115.174 119.237C117.276 119.724 119.147 119.364 120.787 118.158C126.795 104.478 130.871 90.3713 133.015 75.8387C129.578 74.9665 126.203 73.8642 122.913 72.539C123.849 72.7803 124.601 72.5877 125.169 71.9607Z"
    fill="#CBCBCB" />
  <path
    d="M102.049 96.1609C102.772 98.0629 102.634 100.021 101.632 102.037C101.992 103.929 102.604 103.972 103.469 102.167C103.912 104.542 103.126 105.224 101.109 104.215C100.873 101.494 101.193 98.7541 102.049 96.1609Z"
    fill="#EAB39B" />
  <path
    d="M116.748 107.539C117.869 107.855 118.306 108.624 118.061 109.846C116.038 109.775 115.6 109.006 116.748 107.539Z"
    fill="#ACFF5A" />
  <path
    d="M97.3376 110.593C102.157 112.236 106.958 113.93 111.742 115.674C107.259 115.675 102.814 114.86 98.6244 113.268C97.5794 112.67 97.1502 111.778 97.3376 110.593Z"
    fill="#00852C" />
  <path opacity="0.935"
    d="M101.403 68.7996C102.95 67.7577 104.699 67.3891 106.649 67.6941C110.411 68.4343 114.162 69.1362 117.902 69.8036L125.113 72.0192C124.552 72.5981 123.82 72.7722 122.915 72.539C116.173 71.001 109.361 69.7792 102.505 68.8777C100.166 78.2608 98.1411 87.7191 96.4336 97.2372C95.4237 102.817 95.1446 108.505 95.6033 114.157C101.883 116.682 108.461 118.389 115.176 119.236C116.923 120.078 118.865 120.461 121 120.387C120.305 121.094 119.413 121.523 118.325 121.673C110.85 120.229 103.464 118.35 96.2077 116.046C95.202 115.647 94.3476 114.94 93.7671 114.027C94.382 98.6883 96.9485 83.4904 101.403 68.7996Z"
    fill="#CBCBCB" />
  <g filter="url(#filter0_d_10_1371)">
    <path
      d="M98.0432 121.88C91.4373 119.206 88.2496 111.684 90.9233 105.078C93.597 98.4721 101.12 95.2844 107.725 97.958C114.331 100.632 117.519 108.154 114.845 114.76C112.172 121.366 104.649 124.554 98.0432 121.88ZM24.2644 91.4116L26.1404 89.8839C32.3412 97.4987 44.7385 104.485 59.1062 108.277C73.4321 112.059 89.217 112.53 102.024 107.658L102.884 109.919L103.745 112.18C89.6997 117.523 72.8197 116.901 57.8712 112.956C42.9645 109.021 29.4778 101.646 22.3883 92.9393L24.2644 91.4116Z"
      fill="#E8E8E8" />
  </g>
  <defs>
    <filter id="filter0_d_10_1371" x="20.3145" y="89.1927" width="100.316" height="39.8548" filterUnits="userSpaceOnUse"
      color-interpolation-filters="sRGB">
      <feFlood flood-opacity="0" result="BackgroundImageFix" />
      <feColorMatrix in="SourceAlpha" type="matrix" values="0 0 0 0 0 0 0 0 0 0 0 0 0 0 0 0 0 0 127 0"
        result="hardAlpha" />
      <feOffset dx="1.38253" dy="2.76505" />
      <feGaussianBlur stdDeviation="1.72816" />
      <feComposite in2="hardAlpha" operator="out" />
      <feColorMatrix type="matrix" values="0 0 0 0 0 0 0 0 0 0 0 0 0 0 0 0 0 0 0.17 0" />
      <feBlend mode="normal" in2="BackgroundImageFix" result="effect1_dropShadow_10_1371" />
      <feBlend mode="normal" in="SourceGraphic" in2="effect1_dropShadow_10_1371" result="shape" />
    </filter>
  </defs>
</svg>