<svg width="40" height="46" viewBox="0 0 40 46" fill="none" xmlns="http://www.w3.org/2000/svg">
<path d="M28.0772 8.30033C27.7101 4.12055 24.4067 -0.00818399 18.56 8.24472e-06C8.63699 0.00365276 4.925 9.58771 8.67942 16.574C0.163559 17.992 -0.446236 23.3231 0.179035 26.841C0.878046 30.7883 5.60753 33.8499 10.966 32.2661L12.0494 46C21.2989 45.5829 30.0843 43.8162 38.3391 40.5357L33.2211 26.8465L30.4162 27.1431L33.4202 38.007C28.0726 40.2336 22.3177 41.3875 16.2086 41.613L15.6359 38.1389L22.4316 37.0372L22.2977 34.9557L15.1898 35.4166L14.3955 30.6075C15.1547 30.0845 15.8677 29.4975 16.5269 28.8529L15.5656 28.0516C10.563 31.2415 6.14399 29.3992 5.58395 26.0295C5.14524 23.4076 5.39349 19.7448 12.7896 17.0416L12.2125 16.2164C11.7184 16.2357 11.2339 16.2736 10.7882 16.3019C9.51702 12.7225 10.1679 6.07753 18.335 4.35636C25.9043 2.7609 27.6097 13.8849 22.415 15.3285L22.604 16.5994C23.973 16.2141 25.2039 15.4467 26.1526 14.3871C27.1013 13.3275 27.7286 12.0196 27.9609 10.6165C38.1336 13.4047 34.9555 23.3388 26.167 24.2203L27.0093 25.8781C36.1868 25.0945 39.7624 20.7421 39.4423 16.3772C39.1646 12.5517 35.4129 8.90258 28.0772 8.30033Z" fill="black"/>
</svg>
