<svg width="77" height="77" viewBox="0 0 77 77" fill="none" xmlns="http://www.w3.org/2000/svg">
<path d="M40.1923 1.76258C19.9027 0.827954 2.6973 16.5181 1.76266 36.8077C0.828042 57.0973 16.5181 74.3027 36.8078 75.2373C57.0974 76.172 74.3028 60.4819 75.2374 40.1922C76.172 19.9026 60.4819 2.69722 40.1923 1.76258Z" fill="#0E0E0E"/>
<path d="M40.1923 1.76258C19.9027 0.827954 2.6973 16.5181 1.76266 36.8077C0.828042 57.0973 16.5181 74.3027 36.8078 75.2373C57.0974 76.172 74.3028 60.4819 75.2374 40.1922C76.172 19.9026 60.4819 2.69722 40.1923 1.76258Z" stroke="black" stroke-width="0.13241"/>
<rect x="-1.31045" y="1.37901" width="10.6409" height="6.29679" rx="3.14839" transform="matrix(-1.01264 0.0258123 0.0258123 1.01264 56.4087 21.8584)" stroke="#E8E8E8" stroke-width="2.6559"/>
<rect x="18.1161" y="19.3316" width="10.8133" height="11.2997" rx="3.98385" transform="rotate(3.1161 18.1161 19.3316)" stroke="#E8E8E8" stroke-width="2.6559"/>
<rect x="-0.810607" y="0.739216" width="8.13644" height="1.53161" rx="0.765805" transform="matrix(-1.01189 -0.0466118 -0.0466118 1.01189 41.0757 24.6075)" fill="#E8E8E8" stroke="#E8E8E8" stroke-width="1.53161"/>
<path d="M55.6453 13.8725C56.3035 14.3404 57.1865 14.9733 57.7302 15.7068C58.2739 16.4402 58.5001 16.9001 58.4483 17.3846C58.2942 18.8295 56.2952 18.6147 55.5291 17.6476C54.7629 16.6805 51.5373 15.1995 51.5373 15.1995C50.8392 14.8132 50.4207 14.0746 50.4831 13.3395C50.5955 12.0173 51.7415 11.8864 52.8038 12.2973C53.8661 12.7082 54.987 13.4046 55.6453 13.8725Z" fill="#E8E8E8"/>
<path d="M23.5261 11.8278C22.7195 11.8673 21.6346 11.9248 20.7814 12.2497C19.9282 12.5746 19.4899 12.8402 19.2724 13.2762C18.6238 14.5766 20.4235 15.4726 21.59 15.0707C22.7565 14.6687 26.2718 15.1591 26.2718 15.1591C27.0681 15.2097 27.8186 14.8131 28.1621 14.1601C28.7798 12.9858 27.8849 12.258 26.7686 12.0318C25.6523 11.8056 24.3327 11.7883 23.5261 11.8278Z" fill="#E8E8E8"/>
<path d="M70.1993 39.3944C67.4455 40.4696 54.1643 43.115 52.4321 41.6741C50.7799 40.2998 50.2433 37.7947 49.1912 36.0229C47.7893 33.662 43.9004 35.1011 43.7587 38.1764C43.6731 40.0364 44.7067 42.2842 45.3501 43.5885C45.5568 44.0074 45.3747 44.5029 44.9496 44.6964C43.1347 45.5222 39.6729 47.3337 39.543 50.1537C39.2253 57.049 43.3467 57.3759 49.0847 56.9957C50.761 56.8846 57.7583 55.8644 61.0295 54.8065C64.3008 53.7487 69.453 51.4663 71.9348 48.9438" stroke="#E8E8E8" stroke-width="2.04913" stroke-linecap="round"/>
</svg>
