<svg width="8" height="14" viewBox="0 0 8 14" fill="none" xmlns="http://www.w3.org/2000/svg">
  <path
    d="M7.32947 0.797067L1.12654 7L7.33041 13.2029C7.37396 13.2465 7.40756 13.2972 7.43121 13.3551C7.45485 13.4117 7.46667 13.4711 7.46667 13.5333C7.46667 13.5644 7.46356 13.5949 7.45734 13.6248C7.45112 13.6547 7.44241 13.6836 7.43121 13.7116C7.41938 13.7402 7.40507 13.7673 7.38827 13.7928C7.37085 13.8177 7.35156 13.8413 7.33041 13.8637C7.30863 13.8849 7.28499 13.9042 7.25947 13.9216C7.23396 13.9384 7.2069 13.9527 7.17827 13.9645C7.15027 13.9764 7.12134 13.9851 7.09147 13.9907C7.06098 13.9969 7.0305 14 7.00001 14C6.93778 14 6.87836 13.9882 6.82174 13.9645C6.7645 13.9409 6.71379 13.9073 6.66961 13.8637L0.150274 7.34347C0.102363 7.29991 0.0650298 7.24795 0.0382745 7.1876C0.0127632 7.12787 7.32055e-06 7.06564 7.32337e-06 7.00093L7.32341e-06 7C7.32627e-06 6.93467 0.0130741 6.87213 0.0392072 6.8124C0.0653407 6.75267 0.102674 6.70071 0.151208 6.65653L6.66961 0.136266C6.71316 0.0927109 6.76387 0.0591109 6.82174 0.0354664C6.87836 0.011822 6.93779 -2.31185e-08 7.00001 -2.03987e-08C7.03112 -1.90388e-08 7.06161 0.00311126 7.09147 0.00933347C7.12134 0.0155557 7.15027 0.0242664 7.17827 0.0354664C7.2069 0.0472886 7.23396 0.0615996 7.25947 0.0783996C7.28436 0.0958219 7.30801 0.115111 7.33041 0.136266C7.35156 0.158044 7.37085 0.181689 7.38827 0.2072C7.40507 0.232711 7.41939 0.259778 7.43121 0.2884C7.44303 0.3164 7.45174 0.345333 7.45734 0.3752C7.46356 0.405689 7.46667 0.436178 7.46667 0.466667C7.46667 0.528889 7.45485 0.588311 7.43121 0.644933C7.40756 0.702177 7.37396 0.752889 7.33041 0.797067L7.32947 0.797067Z"
    fill="#333333" />
</svg>