<svg width="55" height="28" viewBox="0 0 55 28" fill="none" xmlns="http://www.w3.org/2000/svg">
<rect x="12.8221" y="10.3412" width="10.9669" height="11.0539" rx="4.07533" transform="rotate(2.0777 12.8221 10.3412)" stroke="#E8E8E8" stroke-width="2.71688"/>
<rect x="-1.30573" y="1.42488" width="10.8852" height="6.82683" rx="3.41341" transform="matrix(-1.00505 0.0438561 0.0438561 1.00505 51.8269 11.1742)" stroke="#E8E8E8" stroke-width="2.71688"/>
<path d="M29.6136 15.6221L36.4101 15.5138C36.8389 15.5069 37.1925 15.8487 37.1995 16.2774C37.2063 16.7063 36.8638 17.06 36.4349 17.0668L29.6383 17.1751C29.2096 17.1817 28.8568 16.8392 28.8499 16.4104C28.8433 15.9818 29.185 15.6291 29.6136 15.6221Z" fill="#E8E8E8" stroke="#E8E8E8" stroke-width="1.58948"/>
<path d="M18.6645 2.18114C17.8464 2.24266 16.746 2.3298 15.8882 2.68242C15.0303 3.03503 14.5922 3.31639 14.3829 3.76501C13.7586 5.1028 15.6102 5.96509 16.7842 5.52595C17.9582 5.08681 21.5414 5.49162 21.5414 5.49162C22.3514 5.52189 23.1031 5.09914 23.4346 4.4269C24.0308 3.21784 23.1026 2.50249 21.963 2.30234C20.8233 2.10219 19.4826 2.11962 18.6645 2.18114Z" fill="#E8E8E8"/>
<path d="M49.7027 0.317684C50.5058 0.485288 51.5854 0.715071 52.39 1.17646C53.1946 1.63786 53.5923 1.97391 53.7414 2.44598C54.186 3.85371 52.2378 4.46737 51.1311 3.87899C50.0243 3.29061 46.419 3.22505 46.419 3.22505C45.6119 3.14951 44.9217 2.63243 44.6807 1.92272C44.2471 0.646271 45.2605 0.05797 46.4166 0.00803386C47.5726 -0.0419024 48.8995 0.150079 49.7027 0.317684Z" fill="#E8E8E8"/>
</svg>
