<svg width="28" height="28" viewBox="0 0 28 28" fill="none" xmlns="http://www.w3.org/2000/svg">
  <path
    d="M10.6174 14.8112C8.9402 13.7089 7.83291 11.8106 7.83291 9.65372C7.83291 6.24771 10.594 3.4866 14 3.4866C17.406 3.4866 20.1671 6.24771 20.1671 9.65372C20.1671 11.8106 19.0598 13.7089 17.3827 14.8112C20.4551 16.1255 22.6078 19.1758 22.6078 22.7289C22.6078 23.2584 22.1785 23.6877 21.649 23.6877C21.1194 23.6877 20.6901 23.2584 20.6901 22.7289C20.6901 19.034 17.6949 16.0388 14 16.0388C10.3052 16.0388 7.3099 19.034 7.3099 22.7289C7.3099 23.2584 6.8806 23.6877 6.35106 23.6877C5.82151 23.6877 5.39221 23.2584 5.39221 22.7289C5.39221 19.1758 7.54497 16.1255 10.6174 14.8112ZM14 13.9031C16.3469 13.9031 18.2495 12.0006 18.2495 9.65372C18.2495 7.30682 16.3469 5.40429 14 5.40429C11.6531 5.40429 9.7506 7.30682 9.7506 9.65372C9.7506 12.0006 11.6531 13.9031 14 13.9031Z"
    fill="#CFE444" />
</svg>