<svg width="228" height="228" viewBox="0 0 228 228" fill="none" xmlns="http://www.w3.org/2000/svg">
<path d="M114 1.30943C176.237 1.30943 226.691 51.7623 226.691 114C226.691 176.237 176.237 226.691 114 226.691C51.7623 226.691 1.30943 176.237 1.30943 114C1.30964 51.7624 51.7624 1.30964 114 1.30943Z" fill="black"/>
<path d="M114 1.30943C176.237 1.30943 226.691 51.7623 226.691 114C226.691 176.237 176.237 226.691 114 226.691C51.7623 226.691 1.30943 176.237 1.30943 114C1.30964 51.7624 51.7624 1.30964 114 1.30943Z" stroke="#C8FD00" stroke-width="2.61455"/>
<g clip-path="url(#clip0_10_1185)">
<path d="M117.246 73.6586C121.04 73.8278 124.841 73.7417 128.623 73.4009C131.623 88.8433 132.522 104.542 131.316 120.496C130.088 122.298 128.326 123.326 126.029 123.581C118.945 125.113 111.694 125.727 104.453 125.409C101.981 119.863 100.24 114.018 99.2768 108.022C97.6179 97.8002 96.3006 87.5257 95.3269 77.216C102.578 75.6881 109.884 74.5024 117.246 73.6586Z" fill="#F8F3F3"/>
<path d="M121.874 117.363C121.521 110.387 121.108 103.413 120.635 96.4436C120.66 95.1016 121.015 93.9142 121.702 92.8803L122.463 92.6718C123.146 94.6733 123.579 96.7519 123.751 98.86C122.181 96.2439 121.87 96.6014 122.819 99.9332C124.083 99.7011 124.83 98.9507 125.063 97.6824C124.395 93.7404 123.606 89.8685 122.696 86.0665C122.308 87.4856 122.021 88.9305 121.837 90.3903C121.375 89.6992 120.729 89.3311 119.899 89.2864C119.324 87.7106 119.161 86.12 119.408 84.5149C119.363 84.0227 119.513 83.5728 119.856 83.1656C122.268 82.097 124.781 81.2711 127.357 80.7001C129.357 92.1456 129.942 103.794 129.099 115.382C126.888 117.066 124.48 117.726 121.874 117.363Z" fill="#00852C"/>
<path d="M107.441 86.9115L113.859 83.6622C113.464 85.4985 113.417 87.1804 113.72 88.696C110.044 90.4679 106.355 92.0973 102.738 93.5471C97.3887 93.6567 98.9564 91.4448 107.441 86.9115Z" fill="#CFE444"/>
<path d="M126.16 72.077C122.44 77.8365 119.49 83.65 117.627 88.8892C116.754 89.4073 115.98 89.6726 115.361 89.6663C114.741 89.6601 114.291 89.3823 114.042 88.8529L110.483 86.282C115.425 79.0908 121.133 72.4998 126.804 67.4364C125.911 69.6301 125.695 71.1792 126.16 72.077Z" fill="#ACFF5A"/>
<path d="M122.933 76.4223C122.685 78.0274 125.362 78.5315 119.9 89.2852C117.251 92.1392 117.852 93.3367 121.703 92.8791C121.016 93.913 120.661 95.1004 120.636 96.4424C121.109 103.412 121.522 110.385 121.875 117.362C119.991 118.126 118.147 118.358 116.343 118.061L118.625 117.436C118.036 113.915 118.468 110.526 119.925 107.267C119.094 106.501 118.1 105.935 117.018 105.611C117.153 100.076 116.27 94.8675 114.368 89.9844C115.118 89.1425 115.682 88.1519 116.024 87.0773L122.933 76.4223Z" fill="#CFE444"/>
<path d="M100.472 92.9785C101.405 94.0342 102.557 94.2627 103.931 93.6653L105.391 98.9888C105.366 101.826 105.877 104.685 106.924 107.563C109.078 107.259 111.26 107.209 113.425 107.415C113.825 109.783 114.07 112.174 114.161 114.573C113.229 113.838 112.596 114.012 112.26 115.094C113.927 116.262 113.952 117.346 112.333 118.345C109.646 119.077 107.029 118.977 104.483 118.044C102.432 110.404 100.851 102.646 99.7482 94.8123C99.7686 94.0577 100.01 93.4462 100.472 92.9785Z" fill="#00852C"/>
<path d="M101.5 90.7704C102.118 89.8374 103.062 89.3054 104.334 89.1758L105.168 89.2357C107.552 89.1207 110.725 86.1814 113.042 85.5525C113.063 85.8327 113.283 83.8289 113.421 84.0738C113.559 84.3186 113.724 83.5794 113.953 83.7426C114.711 82.6642 114.816 87.6074 116.023 87.0768C115.682 88.1514 115.117 89.142 114.367 89.9839C113.592 90.1262 113.027 90.5541 112.675 91.2657C112.459 92.8869 112.497 94.5316 112.785 96.1414C112.102 97.1104 111.424 98.114 110.749 99.1528L109.504 99.0853C110.379 98.3001 110.24 97.7936 109.087 97.5643C108.017 97.4591 106.937 97.6148 105.941 98.0182C105.699 96.257 105.028 94.8057 103.929 93.6638C102.555 94.2612 101.403 94.0326 100.47 92.9769C101.812 93.0489 103.149 92.9545 104.481 92.6948C104.122 90.8689 103.888 92.0026 103.782 90.1448L101.5 90.7704Z" fill="#E8FD7F"/>
<path d="M119.889 89.2883C120.719 89.333 121.366 89.7012 121.828 90.3922L122.453 92.6737L121.693 92.8822C117.841 93.3398 117.24 92.1423 119.889 89.2883Z" fill="#ACFF5A"/>
<path d="M103.93 93.6654C105.029 94.8073 105.7 96.2586 105.942 98.0198C106.938 97.6165 108.018 97.4607 109.088 97.566C110.241 97.7952 110.38 98.3017 109.505 99.087L110.75 99.1544C111.41 98.138 112.089 97.134 112.786 96.1431C112.838 99.085 113.097 102.02 113.559 104.926C111.63 104.361 109.98 103.313 108.61 101.785C107.808 101.614 106.974 101.7 106.224 102.031L105.39 98.9889L103.93 93.6654Z" fill="#E8FD7F"/>
<path d="M122.465 92.6712L121.839 90.3897C122.023 88.9299 122.31 87.485 122.698 86.0659C123.617 89.9103 124.406 93.7845 125.065 97.6818C124.833 98.9501 124.085 99.7005 122.821 99.9327C121.872 96.6008 122.183 96.2433 123.753 98.8594C123.579 96.7435 123.15 94.6804 122.465 92.6712Z" fill="#C9B0B4"/>
<path d="M105.384 98.9871L106.219 102.029C106.968 101.698 107.803 101.612 108.604 101.784C109.974 103.312 111.624 104.359 113.554 104.924C113.276 105.725 113.229 106.588 113.419 107.414C111.254 107.208 109.072 107.257 106.918 107.561C105.871 104.683 105.36 101.825 105.384 98.9871Z" fill="#CFE444"/>
<path d="M114.364 89.983C116.266 94.8662 117.149 100.075 117.013 105.61C118.096 105.934 119.09 106.5 119.921 107.266C118.464 110.525 118.031 113.914 118.62 117.434L116.339 118.06C114.942 118.675 113.605 118.769 112.328 118.342C113.946 117.343 113.921 116.26 112.254 115.092C112.59 114.009 113.224 113.836 114.156 114.57C114.065 112.171 113.819 109.78 113.42 107.413C113.23 106.587 113.277 105.724 113.554 104.923C113.092 102.017 112.834 99.0826 112.782 96.1406C112.493 94.5308 112.456 92.8861 112.671 91.2649C113.024 90.5533 113.588 90.1253 114.364 89.983Z" fill="#E8FD7F"/>
<path opacity="0.918" d="M119.314 72.2718C120.119 72.5499 120.95 72.594 121.805 72.4061C124.244 72.496 126.699 72.5041 129.17 72.4307C129.882 72.7834 130.31 73.3483 130.452 74.1236L131.402 77.5895C131.54 78.9946 131.682 80.5009 131.826 82.073C131.839 83.6967 131.981 85.3019 132.247 86.8896C132.821 93.7434 133.322 101.126 133.422 106.603C133.376 112.023 133.009 117.379 132.317 122.672C130.187 123.507 128.089 123.81 126.025 123.58C128.321 123.325 130.083 122.296 131.311 120.495C132.517 104.541 131.619 88.8424 128.619 73.4002C124.837 73.7411 121.035 73.8267 117.241 73.6575C118.272 73.5685 118.964 73.1069 119.314 72.2718Z" fill="#CBCBCB"/>
<path d="M104.563 104.936C105.97 106.6 106.526 108.627 106.231 111.02C107.267 112.803 107.9 112.629 108.132 110.499C109.424 112.739 108.873 113.708 106.476 113.406C105.271 110.741 104.62 107.86 104.563 104.936Z" fill="#EAB39B"/>
<path d="M123.457 111.204C124.701 111.125 125.417 111.746 125.604 113.068C123.534 113.716 122.819 113.094 123.457 111.204Z" fill="#ACFF5A"/>
<path d="M104.935 121.19C110.387 121.137 115.84 121.141 121.292 121.202C116.765 122.797 111.985 123.553 107.186 123.435C105.918 123.202 105.168 122.454 104.935 121.19Z" fill="#00852C"/>
<path opacity="0.935" d="M94.186 77.5268C95.3786 75.9243 97.0142 74.931 99.0918 74.5461C103.156 73.9563 107.195 73.3305 111.21 72.6752L119.281 72.3502C118.92 73.1344 118.243 73.5704 117.246 73.6566C109.888 74.4999 102.573 75.6873 95.3262 77.2142C96.2999 87.5238 97.6173 97.7981 99.2761 108.02C100.24 114.016 101.98 119.861 104.453 125.407C111.693 125.725 118.944 125.11 126.028 123.579C128.093 123.808 130.191 123.506 132.321 122.672C131.87 123.633 131.123 124.384 130.077 124.923C122.012 126.121 113.884 126.847 105.735 127.099C104.577 127.054 103.462 126.645 102.551 125.929C97.7194 110.215 94.9089 93.9503 94.186 77.5268Z" fill="#CBCBCB"/>
</g>
<g filter="url(#filter0_d_10_1185)">
<path d="M98.539 121.76C91.9239 119.082 88.7318 111.549 91.4092 104.934C94.0866 98.3191 101.62 95.127 108.235 97.8044C114.85 100.482 118.042 108.015 115.364 114.63C112.687 121.245 105.154 124.437 98.539 121.76ZM24.6579 91.2489L26.5366 89.7191C32.7459 97.3444 45.1604 104.34 59.548 108.138C73.8938 111.924 89.7006 112.396 102.525 107.518L103.387 109.782L104.248 112.046C90.1839 117.397 73.2805 116.774 58.3113 112.823C43.3839 108.883 29.8786 101.497 22.7792 92.7787L24.6579 91.2489Z" fill="#E8E8E8"/>
</g>
<rect x="75.0891" y="41.0448" width="20.6825" height="20.8466" rx="7.72991" transform="rotate(0.659448 75.0891 41.0448)" stroke="#E8E8E8" stroke-width="5.15327"/>
<rect x="-2.39793" y="2.75043" width="20.6467" height="12.9488" rx="6.47442" transform="matrix(-0.999047 0.0684028 0.0684028 0.999047 148.817 40.7291)" stroke="#E8E8E8" stroke-width="5.15327"/>
<path d="M107.021 50.2158L119.843 49.6939C120.652 49.6609 121.335 50.2897 121.368 51.0989C121.401 51.9081 120.772 52.5913 119.962 52.6242L107.14 53.1461C106.331 53.179 105.648 52.5493 105.615 51.7401C105.583 50.931 106.211 50.2488 107.021 50.2158Z" fill="#E8E8E8" stroke="#E8E8E8" stroke-width="3.01486"/>
<path d="M85.7286 25.3579C84.1872 25.5122 82.1145 25.7281 80.5118 26.4337C78.9091 27.1394 78.0953 27.6909 77.7212 28.5475C76.6054 31.1017 80.1405 32.6427 82.3359 31.759C84.5313 30.8752 91.3133 31.4719 91.3133 31.4719C92.8436 31.4911 94.2426 30.6581 94.8369 29.3738C95.9057 27.0638 94.1205 25.757 91.96 25.4325C89.7995 25.108 87.2699 25.2035 85.7286 25.3579Z" fill="#E8E8E8"/>
<path d="M144.218 20.3907C145.742 20.6695 147.791 21.0527 149.331 21.886C150.871 22.7193 151.637 23.335 151.941 24.219C152.846 26.8553 149.197 28.1046 147.081 27.0458C144.964 25.987 138.156 26.0317 138.156 26.0317C136.63 25.9268 135.303 24.9831 134.815 23.6548C133.937 21.2658 135.822 20.1081 138.002 19.9598C140.181 19.8115 142.695 20.1119 144.218 20.3907Z" fill="#E8E8E8"/>
<defs>
<filter id="filter0_d_10_1185" x="20.7025" y="89.0268" width="100.455" height="39.91" filterUnits="userSpaceOnUse" color-interpolation-filters="sRGB">
<feFlood flood-opacity="0" result="BackgroundImageFix"/>
<feColorMatrix in="SourceAlpha" type="matrix" values="0 0 0 0 0 0 0 0 0 0 0 0 0 0 0 0 0 0 127 0" result="hardAlpha"/>
<feOffset dx="1.38253" dy="2.76505"/>
<feGaussianBlur stdDeviation="1.72816"/>
<feComposite in2="hardAlpha" operator="out"/>
<feColorMatrix type="matrix" values="0 0 0 0 0 0 0 0 0 0 0 0 0 0 0 0 0 0 0.17 0"/>
<feBlend mode="normal" in2="BackgroundImageFix" result="effect1_dropShadow_10_1185"/>
<feBlend mode="normal" in="SourceGraphic" in2="effect1_dropShadow_10_1185" result="shape"/>
</filter>
<clipPath id="clip0_10_1185">
<rect width="49.8033" height="67.1765" fill="white" transform="translate(83.1716 72.5741) scale(1.00139) rotate(-15.3339)"/>
</clipPath>
</defs>
</svg>
