<svg width="28" height="28" viewBox="0 0 28 28" fill="none" xmlns="http://www.w3.org/2000/svg">
  <path
    d="M6.57264 23.2758C5.78232 22.9337 5.41654 22.0139 5.75775 21.2257L13.4583 3.43664C13.8006 2.64888 14.7205 2.28565 15.5088 2.62686L20.3672 4.72999C20.7477 4.89597 21.0406 5.20099 21.1911 5.58763C21.3425 5.97473 21.3341 6.39728 21.1671 6.77737L13.4678 24.5632C13.1256 25.351 12.2056 25.7142 11.4174 25.373L6.57264 23.2758ZM7.01663 21.7694C6.97483 21.8659 7.01947 21.9787 7.11603 22.0205L11.9619 24.1182C12.0511 24.1568 12.1532 24.1225 12.2009 24.041L19.9101 6.23202C19.9519 6.13546 19.9073 6.02267 19.8107 5.98087L14.967 3.88409C14.8725 3.8432 14.7572 3.88799 14.7159 3.9835L13.4114 6.99679L16.2663 8.23259C16.6405 8.39584 16.8143 8.83498 16.6531 9.21012C16.49 9.58692 16.0514 9.75967 15.6756 9.59702L12.8208 8.36122L11.9117 10.4614L13.6949 11.2333C14.0681 11.3961 14.2423 11.8342 14.0831 12.2077C13.92 12.5845 13.4809 12.7583 13.1051 12.5956L11.3219 11.8237L10.4128 13.9239L13.2676 15.1597C13.6429 15.3234 13.8157 15.7621 13.6545 16.1372C13.4914 16.514 13.0527 16.6868 12.677 16.5241L9.82217 15.2883L8.91349 17.3874L10.6967 18.1594C11.0709 18.3226 11.2447 18.7618 11.0836 19.1369C10.9209 19.5126 10.4823 19.6854 10.1065 19.5227L8.32331 18.7508L7.01663 21.7694Z"
    fill="#CFE444" />
</svg>