<svg width="28" height="28" viewBox="0 0 28 28" fill="none" xmlns="http://www.w3.org/2000/svg">
  <path
    d="M19.649 4.36517H7.74897C6.7743 4.36517 5.83955 4.75236 5.15036 5.44156C4.46116 6.13075 4.07397 7.0655 4.07397 8.04017V19.9402C4.07397 21.9702 5.71897 23.6152 7.74897 23.6152H19.649C21.6783 23.6152 23.324 21.9702 23.324 19.9402V8.04017C23.324 6.01017 21.6783 4.36517 19.649 4.36517ZM7.74897 6.11517H19.649C20.1595 6.11517 20.6491 6.31799 21.0102 6.67899C21.3712 7.04 21.574 7.52963 21.574 8.04017V19.9402C21.574 20.4507 21.3712 20.9403 21.0102 21.3014C20.6491 21.6624 20.1595 21.8652 19.649 21.8652H7.74897C7.23843 21.8652 6.7488 21.6624 6.38779 21.3014C6.02679 20.9403 5.82397 20.4507 5.82397 19.9402V8.04017C5.82397 7.52963 6.02679 7.04 6.38779 6.67899C6.7488 6.31799 7.23843 6.11517 7.74897 6.11517Z"
    fill="#CFE444" />
  <path
    d="M13.699 8.28174C16.5557 8.28174 18.9406 10.4447 19.2339 13.2664C19.2484 13.382 19.2396 13.4992 19.2082 13.6114C19.1768 13.7235 19.1233 13.8282 19.0509 13.9194C18.9785 14.0106 18.8886 14.0864 18.7865 14.1424C18.6844 14.1984 18.5722 14.2335 18.4563 14.2455C18.3405 14.2576 18.2235 14.2464 18.112 14.2127C18.0006 14.1789 17.897 14.1233 17.8073 14.049C17.7177 13.9747 17.6438 13.8832 17.5899 13.78C17.536 13.6767 17.5033 13.5638 17.4937 13.4477C17.3949 12.51 16.9524 11.642 16.2516 11.0111C15.5508 10.3802 14.6412 10.0311 13.6983 10.0311C12.7553 10.0311 11.8458 10.3802 11.1449 11.0111C10.4441 11.642 10.0017 12.51 9.90288 13.4477C9.87441 13.6749 9.75808 13.8818 9.57882 14.0241C9.39957 14.1665 9.17167 14.2329 8.944 14.2092C8.71633 14.1855 8.50702 14.0735 8.36096 13.8973C8.2149 13.721 8.14372 13.4946 8.16268 13.2664C8.30658 11.8986 8.95183 10.6324 9.97399 9.71209C10.9962 8.79178 12.3229 8.2825 13.6983 8.28244L13.699 8.28174Z"
    fill="#CFE444" />
  <path
    d="M12.5327 17.5448C12.5327 17.7387 12.5709 17.9308 12.6451 18.11C12.7194 18.2892 12.8282 18.452 12.9653 18.5891C13.1025 18.7263 13.2653 18.8351 13.4445 18.9093C13.6237 18.9835 13.8158 19.0218 14.0097 19.0218C14.2037 19.0218 14.3957 18.9835 14.5749 18.9093C14.7541 18.8351 14.917 18.7263 15.0541 18.5891C15.1913 18.452 15.3001 18.2892 15.3743 18.11C15.4485 17.9308 15.4867 17.7387 15.4867 17.5448C15.4867 17.3508 15.4485 17.1587 15.3743 16.9795C15.3001 16.8003 15.1913 16.6375 15.0541 16.5004C14.917 16.3632 14.7541 16.2544 14.5749 16.1802C14.3957 16.106 14.2037 16.0677 14.0097 16.0677C13.8158 16.0677 13.6237 16.106 13.4445 16.1802C13.2653 16.2544 13.1025 16.3632 12.9653 16.5004C12.8282 16.6375 12.7194 16.8003 12.6451 16.9795C12.5709 17.1587 12.5327 17.3508 12.5327 17.5448Z"
    fill="#CFE444" />
  <path
    d="M11.4591 13.2944C11.6441 13.1832 11.8636 13.1443 12.0755 13.1851C12.2874 13.2259 12.4767 13.3436 12.6071 13.5156L12.6603 13.5947L14.7603 17.0947C14.8764 17.2867 14.9143 17.5159 14.8662 17.7351C14.8181 17.9542 14.6877 18.1465 14.5018 18.2722C14.316 18.3979 14.089 18.4474 13.8677 18.4106C13.6464 18.3737 13.4477 18.2532 13.3127 18.074L13.2595 17.9949L11.1595 14.4949C11.1004 14.3963 11.0613 14.2871 11.0444 14.1735C11.0275 14.0598 11.0331 13.9439 11.061 13.8324C11.0889 13.721 11.1385 13.6161 11.2069 13.5237C11.2753 13.4314 11.3613 13.3535 11.4598 13.2944H11.4591Z"
    fill="#CFE444" />
</svg>