<svg width="179" height="179" viewBox="0 0 179 179" fill="none" xmlns="http://www.w3.org/2000/svg">
  <g filter="url(#filter0_d_36_530)">
    <path
      d="M1.97241 87.5276C1.97241 39.1874 41.1598 0 89.5 0C137.84 0 177.028 39.1874 177.028 87.5276C177.028 135.868 137.84 175.055 89.5 175.055C41.1598 175.055 1.97241 135.868 1.97241 87.5276Z"
      fill="black" shape-rendering="crispEdges" />
    <rect x="62.0476" y="31.4013" width="18.5488" height="6.93729" rx="3.43939"
      transform="rotate(2.0777 62.0476 31.4013)" stroke="#E8E8E8" stroke-width="4.60034" />
    <rect x="-2.35513" y="2.26784" width="18.4314" height="7.79915" rx="3.89957"
      transform="matrix(-1.00492 -0.018975 -0.018975 1.00492 127.179 29.1381)" stroke="#E8E8E8"
      stroke-width="4.60034" />
    <path
      d="M89.1751 33.9825L100.672 33.7993C101.398 33.788 101.995 34.3671 102.006 35.0925C102.018 35.8177 101.439 36.4148 100.714 36.4266L89.2169 36.6097C88.4915 36.6213 87.8937 36.0429 87.8819 35.3175C87.8703 34.592 88.4495 33.994 89.1751 33.9825Z"
      fill="#E8E8E8" stroke="#E8E8E8" stroke-width="2.69137" />
    <path
      d="M70.7304 15.372C69.3464 15.4761 67.4849 15.6235 66.0337 16.22C64.5824 16.8165 63.8413 17.2925 63.4871 18.0515C62.4311 20.3146 65.5635 21.7734 67.5495 21.0305C69.5356 20.2876 75.5973 20.9724 75.5973 20.9724C76.9676 21.0236 78.2392 20.3084 78.8 19.1712C79.8086 17.1258 78.2385 15.9156 76.3105 15.577C74.3824 15.2384 72.1145 15.2679 70.7304 15.372Z"
      fill="#E8E8E8" />
    <path
      d="M120.993 18.6952C122.352 18.9787 124.178 19.3675 125.539 20.148C126.9 20.9285 127.573 21.497 127.825 22.2957C128.578 24.6771 125.282 25.7153 123.41 24.7199C121.537 23.7245 115.438 23.6136 115.438 23.6136C114.073 23.4858 112.905 22.6111 112.497 21.4104C111.764 19.2511 113.478 18.2558 115.434 18.1713C117.39 18.0869 119.634 18.4116 120.993 18.6952Z"
      fill="#E8E8E8" />
    <g clip-path="url(#clip0_36_530)">
      <path
        d="M96.7531 55.5508C99.282 56.5696 101.877 57.4172 104.519 58.0878C102.871 69.2612 99.7376 80.1068 95.1184 90.6247C93.8573 91.5518 92.4188 91.8284 90.8028 91.4539C85.6402 90.8027 80.5828 89.4905 75.7549 87.5494C75.4023 83.2038 75.6168 78.8307 76.3933 74.5404C77.7061 67.2223 79.2627 59.95 81.0605 52.7357C86.3352 53.4292 91.5659 54.3675 96.7531 55.5508Z"
        fill="#F8F3F3" />
      <path
        d="M89.4707 86.2529C90.8945 81.4439 92.2769 76.6227 93.6176 71.7898C93.954 70.8868 94.4778 70.1674 95.1896 69.6309L95.7543 69.671C95.7402 71.1894 95.5377 72.7002 95.1517 74.1689C94.7118 72.0229 94.4161 72.1909 94.2645 74.6736C95.1761 74.8176 95.8613 74.4876 96.3212 73.6842C96.8083 70.8553 97.1965 68.0449 97.4864 65.2531C96.8853 66.1217 96.3466 67.0319 95.8744 67.9767C95.7264 67.3987 95.3764 66.9953 94.825 66.7672C94.811 65.563 95.0797 64.4469 95.6299 63.4188C95.7167 63.0748 95.9253 62.8058 96.2547 62.6117C98.143 62.463 100.042 62.5025 101.922 62.7297C100.549 70.9579 98.1689 78.986 94.8358 86.6332C92.9369 87.2466 91.1489 87.1199 89.4707 86.2529Z"
        fill="#00852C" />
      <path
        d="M86.955 62.1893L92.0757 61.5183C91.3706 62.6678 90.9383 63.7958 90.7819 64.8943C87.8701 65.2183 84.9836 65.4426 82.1883 65.5623C78.5395 64.3616 80.1284 63.2373 86.955 62.1893Z"
        fill="#CFE444" />
      <path
        d="M103.166 56.6043C99.2738 59.6183 95.8898 62.8522 93.3794 65.9564C92.6647 66.0992 92.0775 66.0945 91.6595 65.9426C91.2414 65.7907 91.0028 65.4953 90.9605 65.0775L89.1629 62.4881C94.2239 58.7958 99.6605 55.6926 104.708 53.615C103.58 54.8878 103.064 55.8853 103.166 56.6043Z"
        fill="#ACFF5A" />
      <path
        d="M99.9447 58.7777C99.3945 59.8058 101.087 60.7852 94.8252 66.7663C92.3508 68.0677 92.4722 69.0219 95.1898 69.63C94.478 70.1664 93.9542 70.8859 93.6178 71.7889C92.2771 76.6217 90.8948 81.4429 89.471 86.2519C88.0131 86.32 86.709 86.038 85.5578 85.407L87.252 85.5271C87.6921 83.0025 88.793 80.8102 90.5561 78.9503C90.176 78.2338 89.6377 77.6133 88.982 77.136C90.393 73.4197 91.0365 69.6818 90.912 65.9213C91.6207 65.5299 92.2389 64.9936 92.7263 64.3472L99.9447 58.7777Z"
        fill="#CFE444" />
      <path
        d="M80.7881 64.6373C81.1683 65.5746 81.8945 66.0041 82.967 65.9269L82.6868 69.8801C81.9936 71.7959 81.6588 73.8534 81.6817 76.0521C83.2127 76.3597 84.7022 76.8463 86.1196 77.5019C85.8259 79.2004 85.4226 80.8781 84.9122 82.5245C84.4563 81.8048 83.9859 81.7715 83.5003 82.4244C84.3509 83.613 84.1095 84.3525 82.7755 84.6433C80.7805 84.4991 79.032 83.8076 77.5305 82.5688C77.9622 76.9058 78.7405 71.2745 79.8609 65.7067C80.0546 65.2005 80.3636 64.8439 80.7881 64.6373Z"
        fill="#00852C" />
      <path
        d="M82.0086 63.387C82.6492 62.9023 83.4153 62.767 84.3076 62.9824L84.8582 63.2218C86.5007 63.7123 89.3499 62.4778 91.0692 62.6042C91.0165 62.799 91.6431 61.4943 91.678 61.693C91.713 61.8917 92.001 61.4304 92.117 61.5954C92.8879 61.046 91.7806 64.4186 92.7246 64.347C92.2371 64.9933 91.6189 65.5297 90.9102 65.9211C90.3512 65.8327 89.8668 65.9879 89.4584 66.3858C88.9263 67.4324 88.5595 68.5552 88.3711 69.7141C87.6777 70.2076 86.9792 70.7257 86.2744 71.2683L85.4473 70.9258C86.2268 70.6025 86.2535 70.2264 85.5274 69.7964C84.8278 69.4701 84.0595 69.3182 83.2884 69.3539C83.5445 68.1035 83.4359 66.9606 82.9639 65.9254C81.8914 66.0026 81.1652 65.5732 80.785 64.6358C81.6766 65.0044 82.6047 65.2592 83.5686 65.4007C83.7605 64.0786 83.3321 64.7907 83.7029 63.5071L82.0086 63.387Z"
        fill="#E8FD7F" />
      <path
        d="M94.8202 66.7663C95.3716 66.9944 95.7216 67.3978 95.8696 67.9759L95.7495 69.6701L95.1848 69.63C92.4672 69.022 92.3458 68.0678 94.8202 66.7663Z"
        fill="#ACFF5A" />
      <path
        d="M82.9653 65.9262C83.4373 66.9614 83.5459 68.1043 83.2898 69.3547C84.0609 69.319 84.8292 69.4708 85.5288 69.7971C86.2549 70.2272 86.2282 70.6033 85.4487 70.9266L86.2758 71.269C86.9649 70.7379 87.6639 70.2198 88.3725 69.7149C87.7066 71.7198 87.182 73.7688 86.8027 75.847C85.6307 75.0045 84.7627 73.902 84.1991 72.5408C83.6974 72.2336 83.1115 72.0928 82.5249 72.1383L82.685 69.8794L82.9653 65.9262Z"
        fill="#E8FD7F" />
      <path
        d="M95.7547 69.6703L95.8748 67.9761C96.347 67.0312 96.8856 66.1211 97.4867 65.2525C97.1927 68.0751 96.8041 70.887 96.3216 73.6835C95.8616 74.487 95.1765 74.817 94.2649 74.6729C94.4165 72.1903 94.7122 72.0223 95.1521 74.1682C95.5386 72.6938 95.7397 71.1943 95.7547 69.6703Z"
        fill="#C9B0B4" />
      <path
        d="M82.684 69.8773L82.5239 72.1363C83.1104 72.0907 83.6963 72.2316 84.1981 72.5388C84.7617 73.9 85.6297 75.0025 86.8016 75.845C86.4226 76.3212 86.1853 76.8944 86.1168 77.4992C84.6994 76.8436 83.2099 76.357 81.6789 76.0494C81.656 73.8507 81.9908 71.7932 82.684 69.8773Z"
        fill="#CFE444" />
      <path
        d="M90.9116 65.9203C91.0361 69.6808 90.3926 73.4186 88.9815 77.135C89.6373 77.6123 90.1756 78.2328 90.5556 78.9493C88.7926 80.8092 87.6916 83.0014 87.2516 85.526L85.5574 85.406C84.4645 85.4897 83.537 85.2349 82.7737 84.6411C84.1077 84.3502 84.3491 83.6108 83.4986 82.4221C83.9842 81.7692 84.4546 81.8026 84.9104 82.5222C85.4209 80.8758 85.8242 79.1981 86.1178 77.4996C86.1863 76.8949 86.4236 76.3216 86.8026 75.8454C87.182 73.7672 87.7065 71.7182 88.3724 69.7133C88.5609 68.5544 88.9276 67.4316 89.4597 66.385C89.8682 65.9871 90.3526 65.8319 90.9116 65.9203Z"
        fill="#E8FD7F" />
      <path opacity="0.918"
        d="M98.4874 55.1047C98.9661 55.4849 99.5181 55.7132 100.142 55.7898C101.773 56.432 103.433 57.0226 105.124 57.5619C105.522 57.9703 105.678 58.4548 105.589 59.0138L105.408 61.5711C105.164 62.568 104.896 63.6361 104.615 64.7503C104.245 65.8359 103.963 66.9391 103.766 68.0594C102.506 72.8981 101.064 78.0894 99.8149 81.8397C98.5025 85.4562 96.9912 88.9556 95.2805 92.3375C93.6391 92.3947 92.1464 92.0997 90.803 91.4523C92.4189 91.8268 93.8576 91.5507 95.1185 90.6236C99.7377 80.1059 102.871 69.26 104.519 58.0868C101.877 57.4162 99.2824 56.5684 96.7535 55.5496C97.4729 55.735 98.0508 55.5867 98.4874 55.1047Z"
        fill="#CBCBCB" />
      <path
        d="M80.7096 73.7109C81.266 75.1732 81.1593 76.6788 80.3893 78.2288C80.6659 79.6832 81.1364 79.7166 81.8012 78.3289C82.1423 80.1545 81.5375 80.6792 79.9869 79.903C79.8056 77.8113 80.0515 75.7046 80.7096 73.7109Z"
        fill="#EAB39B" />
      <path
        d="M92.0099 82.4589C92.8713 82.7022 93.2079 83.2936 93.0193 84.2332C91.4635 84.1785 91.1274 83.5871 92.0099 82.4589Z"
        fill="#ACFF5A" />
      <path
        d="M77.0863 84.8069C80.7914 86.0704 84.4831 87.3727 88.1609 88.7135C84.7147 88.7146 81.2971 88.0877 78.0757 86.8635C77.2722 86.4036 76.9422 85.7184 77.0863 84.8069Z"
        fill="#00852C" />
      <path opacity="0.935"
        d="M80.212 52.6729C81.4016 51.8719 82.7469 51.5897 84.2456 51.8242C87.1406 52.3938 90.0273 52.9331 92.905 53.4466L98.4424 55.1478C98.0111 55.5937 97.4484 55.728 96.752 55.5485C91.5679 54.366 86.3308 53.426 81.0589 52.7329C79.2611 59.9472 77.7049 67.2201 76.3921 74.5382C75.6157 78.8283 75.4008 83.2012 75.7534 87.5468C80.5813 89.4878 85.639 90.8001 90.8015 91.4513C92.145 92.0987 93.6376 92.3937 95.279 92.3364C94.7444 92.8802 94.0589 93.2107 93.2221 93.3261C87.4748 92.2157 81.7973 90.7703 76.2183 88.9986C75.4449 88.6919 74.788 88.1488 74.3416 87.4467C74.8144 75.6534 76.7872 63.9678 80.212 52.6729Z"
        fill="#CBCBCB" />
    </g>
    <g filter="url(#filter1_d_36_530)">
      <path
        d="M77.6293 93.4848C72.5504 91.4292 70.0995 85.6455 72.1552 80.5665C74.2108 75.4876 79.9946 73.0367 85.0735 75.0924C90.1525 77.148 92.6033 82.9317 90.5477 88.0107C88.492 93.0896 82.7083 95.5405 77.6293 93.4848ZM20.9045 70.0592L22.3469 68.8846C27.1143 74.7392 36.646 80.1103 47.6926 83.0262C58.7071 85.9336 70.8433 86.2959 80.69 82.55L81.3514 84.2886L82.0128 86.0272C71.2144 90.1352 58.2362 89.657 46.7431 86.6233C35.2821 83.5981 24.9128 77.9276 19.462 71.2337L20.9045 70.0592Z"
        fill="#E8E8E8" />
    </g>
  </g>
  <defs>
    <filter id="filter0_d_36_530" x="-4.50512e-05" y="0" width="179" height="179" filterUnits="userSpaceOnUse"
      color-interpolation-filters="sRGB">
      <feFlood flood-opacity="0" result="BackgroundImageFix" />
      <feColorMatrix in="SourceAlpha" type="matrix" values="0 0 0 0 0 0 0 0 0 0 0 0 0 0 0 0 0 0 127 0"
        result="hardAlpha" />
      <feOffset dy="1.96245" />
      <feGaussianBlur stdDeviation="0.981224" />
      <feComposite in2="hardAlpha" operator="out" />
      <feColorMatrix type="matrix" values="0 0 0 0 0 0 0 0 0 0 0 0 0 0 0 0 0 0 0.25 0" />
      <feBlend mode="normal" in2="BackgroundImageFix" result="effect1_dropShadow_36_530" />
      <feBlend mode="normal" in="SourceGraphic" in2="effect1_dropShadow_36_530" result="shape" />
    </filter>
    <filter id="filter1_d_36_530" x="17.8676" y="68.3531" width="77.1278" height="30.6423" filterUnits="userSpaceOnUse"
      color-interpolation-filters="sRGB">
      <feFlood flood-opacity="0" result="BackgroundImageFix" />
      <feColorMatrix in="SourceAlpha" type="matrix" values="0 0 0 0 0 0 0 0 0 0 0 0 0 0 0 0 0 0 127 0"
        result="hardAlpha" />
      <feOffset dx="1.05756" dy="2.11513" />
      <feGaussianBlur stdDeviation="1.32196" />
      <feComposite in2="hardAlpha" operator="out" />
      <feColorMatrix type="matrix" values="0 0 0 0 0 0 0 0 0 0 0 0 0 0 0 0 0 0 0.17 0" />
      <feBlend mode="normal" in2="BackgroundImageFix" result="effect1_dropShadow_36_530" />
      <feBlend mode="normal" in="SourceGraphic" in2="effect1_dropShadow_36_530" result="shape" />
    </filter>
    <clipPath id="clip0_36_530">
      <rect width="35.6246" height="48.0518" fill="white"
        transform="translate(73.9351 46.6958) scale(1.0051) rotate(4.05444)" />
    </clipPath>
  </defs>
</svg>