<svg width="179" height="179" viewBox="0 0 179 179" fill="none" xmlns="http://www.w3.org/2000/svg">
  <g filter="url(#filter0_d_36_308)">
    <path
      d="M1.97241 87.5276C1.97241 39.1874 41.1598 0 89.5 0C137.84 0 177.028 39.1874 177.028 87.5276C177.028 135.868 137.84 175.055 89.5 175.055C41.1598 175.055 1.97241 135.868 1.97241 87.5276Z"
      fill="black" shape-rendering="crispEdges" />
    <rect x="62.0476" y="31.4013" width="18.5488" height="6.93729" rx="3.43939"
      transform="rotate(2.0777 62.0476 31.4013)" stroke="#E8E8E8" stroke-width="4.60034" />
    <rect x="-2.35513" y="2.26784" width="18.4314" height="7.79915" rx="3.89957"
      transform="matrix(-1.00492 -0.018975 -0.018975 1.00492 127.179 29.1381)" stroke="#E8E8E8"
      stroke-width="4.60034" />
    <path
      d="M89.1751 33.9825L100.672 33.7993C101.398 33.788 101.995 34.3671 102.006 35.0925C102.018 35.8177 101.439 36.4148 100.714 36.4266L89.2169 36.6097C88.4915 36.6213 87.8937 36.0429 87.8819 35.3175C87.8703 34.592 88.4495 33.994 89.1751 33.9825Z"
      fill="#E8E8E8" stroke="#E8E8E8" stroke-width="2.69137" />
    <path
      d="M70.7304 15.372C69.3464 15.4761 67.4849 15.6235 66.0337 16.22C64.5824 16.8165 63.8413 17.2925 63.4871 18.0515C62.4311 20.3146 65.5635 21.7734 67.5495 21.0305C69.5356 20.2876 75.5973 20.9724 75.5973 20.9724C76.9676 21.0236 78.2392 20.3084 78.8 19.1712C79.8086 17.1258 78.2385 15.9156 76.3105 15.577C74.3824 15.2384 72.1145 15.2679 70.7304 15.372Z"
      fill="#E8E8E8" />
    <path
      d="M120.993 18.6952C122.352 18.9787 124.178 19.3675 125.539 20.148C126.9 20.9285 127.573 21.497 127.825 22.2957C128.578 24.6771 125.282 25.7153 123.41 24.7199C121.537 23.7245 115.438 23.6136 115.438 23.6136C114.073 23.4858 112.905 22.6111 112.497 21.4104C111.764 19.2511 113.478 18.2558 115.434 18.1713C117.39 18.0869 119.634 18.4116 120.993 18.6952Z"
      fill="#E8E8E8" />
    <g clip-path="url(#clip0_36_308)">
      <path
        d="M103.148 82.9698C105.034 84.9385 107.05 86.7781 109.183 88.4761C103.086 97.9831 95.7696 106.581 87.2336 114.268C85.7029 114.595 84.2779 114.255 82.9588 113.249C78.5208 110.533 74.4505 107.257 70.848 103.502C72.3137 99.3959 74.3077 95.4979 76.7797 91.9065C80.9859 85.7758 85.3954 79.787 90.001 73.9504C94.5239 76.7516 98.9059 79.758 103.148 82.9698Z"
        fill="#F8F3F3" />
      <path
        d="M83.8823 107.961C87.1578 104.163 90.4005 100.337 93.6101 96.4833C94.2881 95.7985 95.0614 95.3581 95.9308 95.1619L96.4291 95.4306C95.7918 96.8089 94.986 98.1028 94.0301 99.2827C94.5117 97.1457 94.173 97.1773 93.0139 99.378C93.7855 99.8841 94.5458 99.8651 95.2955 99.3219C96.9029 96.9436 98.4125 94.5415 99.8248 92.1159C98.9196 92.6605 98.0543 93.2686 97.2353 93.9357C97.3381 93.3479 97.185 92.8362 96.7761 92.4016C97.2587 91.2981 97.9626 90.3913 98.8869 89.6804C99.1075 89.4025 99.4083 89.2431 99.7883 89.2017C101.571 89.8427 103.285 90.6594 104.906 91.6399C100.27 98.5754 94.7994 104.914 88.6163 110.514C86.6331 110.293 85.0555 109.442 83.8823 107.961Z"
        fill="#00852C" />
      <path
        d="M91.4849 84.992L96.4285 86.4862C95.3131 87.244 94.4551 88.0944 93.8608 89.0314C91.0734 88.1292 88.3501 87.1467 85.7529 86.1063C82.9206 83.5113 84.8313 83.1398 91.4849 84.992Z"
        fill="#CFE444" />
      <path
        d="M108.556 86.568C103.769 87.7149 99.3547 89.271 95.7899 91.0683C95.0797 90.9045 94.5464 90.6587 94.2278 90.3483C93.9092 90.038 93.8131 89.6706 93.9464 89.2723L93.3727 86.1728C99.5044 84.8885 105.736 84.2955 111.191 84.4774C109.64 85.1738 108.76 85.871 108.556 86.568Z"
        fill="#ACFF5A" />
      <path
        d="M104.728 87.2241C103.804 87.935 104.944 89.5239 96.7765 92.4005C93.9858 92.5692 93.704 93.4889 95.9311 95.1608C95.0618 95.3571 94.2884 95.7975 93.6104 96.4822C90.4008 100.336 87.1581 104.162 83.8827 107.96C82.5258 107.423 81.453 106.629 80.6632 105.581L82.1581 106.387C83.5975 104.267 85.5026 102.721 87.8745 101.751C87.8227 100.942 87.5872 100.155 87.1857 99.4499C90.0003 96.6426 92.124 93.5001 93.557 90.0211C94.3639 89.9557 95.148 89.7211 95.8581 89.3323L104.728 87.2241Z"
        fill="#CFE444" />
      <path
        d="M84.8585 84.6876C84.8197 85.6984 85.3049 86.3885 86.3143 86.7592L84.4332 90.2474C83.0135 91.7086 81.8621 93.4464 80.9788 95.4601C82.2479 96.37 83.4056 97.4261 84.4279 98.6066C83.4617 100.034 82.4042 101.397 81.2618 102.688C81.1423 101.845 80.7272 101.621 80.0161 102.016C80.3025 103.45 79.7784 104.024 78.4428 103.741C76.6836 102.789 75.3742 101.44 74.515 99.6931C77.2374 94.7086 80.2626 89.8956 83.5736 85.2811C83.9583 84.8994 84.3867 84.7014 84.8585 84.6876Z"
        fill="#00852C" />
      <path
        d="M86.4824 84.0499C87.2656 83.8715 88.0196 84.0633 88.7443 84.6265L89.1478 85.0712C90.4432 86.1937 93.548 86.2402 95.0632 87.0625C94.9351 87.2183 96.0428 86.2868 95.9929 86.4822C95.9431 86.6777 96.3953 86.3757 96.4332 86.5738C97.3619 86.39 94.9655 89.0088 95.8554 89.3317C95.1453 89.7205 94.3612 89.9552 93.5543 90.0205C93.0811 89.71 92.5757 89.6523 92.0398 89.847C91.1243 90.5822 90.3283 91.4548 89.6799 92.4338C88.845 92.5984 87.9952 92.7834 87.1296 92.9881L86.5165 92.3359C87.36 92.3617 87.539 92.0298 87.054 91.3392C86.5505 90.7541 85.9127 90.2998 85.1951 90.0152C85.9427 88.9807 86.3138 87.8943 86.3092 86.7566C85.2998 86.3859 84.8145 85.6958 84.8534 84.685C85.5146 85.3876 86.2558 86.0016 87.0762 86.527C87.7949 85.4007 87.1115 85.8736 87.9773 84.8561L86.4824 84.0499Z"
        fill="#E8FD7F" />
      <path
        d="M96.7702 92.3988C97.179 92.8334 97.3321 93.3451 97.2293 93.9329L96.4231 95.4278L95.9248 95.1591C93.6977 93.4872 93.9795 92.5675 96.7702 92.3988Z"
        fill="#ACFF5A" />
      <path
        d="M86.3103 86.7574C86.3149 87.8952 85.9439 88.9816 85.1963 90.016C85.9138 90.3007 86.5517 90.755 87.0552 91.3401C87.5402 92.0307 87.3612 92.3626 86.5177 92.3368L87.1308 92.989C87.9773 92.7883 88.8276 92.6035 89.6811 92.4346C88.2496 93.9882 86.9288 95.6403 85.7284 97.3786C85.0066 96.1287 84.6688 94.7668 84.7149 93.2942C84.3838 92.8079 83.9077 92.4386 83.3543 92.2389L84.4292 90.2456L86.3103 86.7574Z"
        fill="#E8FD7F" />
      <path
        d="M96.4304 95.4301L97.2366 93.9351C98.0556 93.268 98.9209 92.6599 99.826 92.1154C98.3972 94.5673 96.8866 96.9707 95.2968 99.3214C94.5471 99.8646 93.7868 99.8836 93.0152 99.3774C94.1743 97.1768 94.5129 97.1452 94.0314 99.2822C94.9901 98.0972 95.79 96.8131 96.4304 95.4301Z"
        fill="#C9B0B4" />
      <path
        d="M84.4317 90.2431L83.3567 92.2364C83.9101 92.436 84.3863 92.8054 84.7173 93.2917C84.6712 94.7643 85.0091 96.1262 85.7308 97.3761C85.1896 97.6543 84.7375 98.0793 84.4263 98.6023C83.404 97.4218 82.2464 96.3658 80.9773 95.4558C81.8606 93.4422 83.012 91.7044 84.4317 90.2431Z"
        fill="#CFE444" />
      <path
        d="M93.5586 90.0202C92.1257 93.4992 90.0019 96.6417 87.1874 99.449C87.5888 100.154 87.8244 100.941 87.8761 101.75C85.5042 102.72 83.5991 104.266 82.1598 106.386L80.6648 105.58C79.6342 105.207 78.8935 104.593 78.442 103.738C79.7776 104.022 80.3017 103.447 80.0152 102.014C80.7264 101.618 81.1415 101.842 81.261 102.685C82.4034 101.395 83.4609 100.031 84.4271 98.6037C84.7382 98.0806 85.1903 97.6557 85.7316 97.3775C86.932 95.6391 88.2528 93.9871 89.6843 92.4335C90.3326 91.4546 91.1287 90.582 92.0441 89.8467C92.5801 89.652 93.0854 89.7097 93.5586 90.0202Z"
        fill="#E8FD7F" />
      <path opacity="0.918"
        d="M104.91 83.2769C105.19 83.8203 105.599 84.2554 106.136 84.5818C107.358 85.8377 108.629 87.0591 109.949 88.2461C110.144 88.7819 110.086 89.2875 109.776 89.7607L108.563 92.0086C107.927 92.8211 107.241 93.69 106.522 94.5954C105.744 95.4267 105.038 96.31 104.402 97.243C101.247 101.156 97.7771 105.321 95.0879 108.23C92.4155 110.973 89.6113 113.529 86.6748 115.897C85.1551 115.274 83.9158 114.391 82.9574 113.249C84.2764 114.254 85.7013 114.594 87.2319 114.268C95.7678 106.58 103.084 97.9825 109.182 88.4757C107.049 86.7777 105.032 84.938 103.146 82.9693C103.726 83.4342 104.313 83.5367 104.91 83.2769Z"
        fill="#CBCBCB" />
      <path
        d="M81.0543 92.9257C80.9601 94.4875 80.2437 95.816 78.9044 96.9122C78.5585 98.3517 78.9735 98.5756 80.1502 97.584C79.7104 99.3884 78.9433 99.618 77.8491 98.2728C78.5441 96.2916 79.6346 94.4724 81.0543 92.9257Z"
        fill="#EAB39B" />
      <path
        d="M87.7571 105.547C88.4422 106.123 88.5059 106.801 87.9475 107.58C86.5518 106.89 86.4887 106.213 87.7571 105.547Z"
        fill="#ACFF5A" />
      <path
        d="M73.1864 101.55C76.044 104.226 78.8736 106.931 81.6746 109.666C78.5329 108.249 75.6755 106.272 73.2425 103.832C72.6993 103.082 72.6802 102.322 73.1864 101.55Z"
        fill="#00852C" />
      <path opacity="0.935"
        d="M89.2531 73.5441C90.6669 73.3031 92.009 73.5992 93.2788 74.4293C95.6812 76.1375 98.0887 77.8146 100.498 79.4646L104.851 83.2975C104.275 83.5259 103.708 83.417 103.147 82.9673C98.908 79.7574 94.5208 76.7469 90.0004 73.9471C85.3948 79.7838 80.9853 85.7733 76.7792 91.904C74.3072 95.4953 72.313 99.393 70.8474 103.499C74.4498 107.254 78.5205 110.53 82.9584 113.246C83.9168 114.389 85.1567 115.272 86.6766 115.895C85.9657 116.171 85.2049 116.19 84.3947 115.951C79.6124 112.576 75.031 108.923 70.674 105.014C70.0953 104.416 69.7198 103.651 69.6016 102.827C74.8825 92.2717 81.4863 82.4313 89.2531 73.5441Z"
        fill="#CBCBCB" />
    </g>
    <g filter="url(#filter1_d_36_308)">
      <path
        d="M70.113 109.683C66.3287 105.721 66.4732 99.441 70.4357 95.6568C74.3981 91.8725 80.678 92.017 84.4623 95.9795C88.2465 99.9419 88.102 106.222 84.1395 110.006C80.1771 113.79 73.8972 113.646 70.113 109.683ZM28.0403 65.0027L29.8382 64.5252C31.7761 71.8224 38.2557 80.6381 47.1258 87.8388C55.9702 95.0186 66.8837 100.34 77.3997 100.975L77.2876 102.831L77.1755 104.688C65.6431 103.992 54.0098 98.219 44.7811 90.7272C35.5781 83.2564 28.4582 73.8233 26.2425 65.4801L28.0403 65.0027Z"
        fill="#E8E8E8" />
    </g>
  </g>
  <defs>
    <filter id="filter0_d_36_308" x="-4.50512e-05" y="0" width="179" height="179" filterUnits="userSpaceOnUse"
      color-interpolation-filters="sRGB">
      <feFlood flood-opacity="0" result="BackgroundImageFix" />
      <feColorMatrix in="SourceAlpha" type="matrix" values="0 0 0 0 0 0 0 0 0 0 0 0 0 0 0 0 0 0 127 0"
        result="hardAlpha" />
      <feOffset dy="1.96245" />
      <feGaussianBlur stdDeviation="0.981224" />
      <feComposite in2="hardAlpha" operator="out" />
      <feColorMatrix type="matrix" values="0 0 0 0 0 0 0 0 0 0 0 0 0 0 0 0 0 0 0.25 0" />
      <feBlend mode="normal" in2="BackgroundImageFix" result="effect1_dropShadow_36_308" />
      <feBlend mode="normal" in="SourceGraphic" in2="effect1_dropShadow_36_308" result="shape" />
    </filter>
    <filter id="filter1_d_36_308" x="24.648" y="63.9937" width="66.2809" height="53.5419" filterUnits="userSpaceOnUse"
      color-interpolation-filters="sRGB">
      <feFlood flood-opacity="0" result="BackgroundImageFix" />
      <feColorMatrix in="SourceAlpha" type="matrix" values="0 0 0 0 0 0 0 0 0 0 0 0 0 0 0 0 0 0 127 0"
        result="hardAlpha" />
      <feOffset dx="1.05756" dy="2.11513" />
      <feGaussianBlur stdDeviation="1.32196" />
      <feComposite in2="hardAlpha" operator="out" />
      <feColorMatrix type="matrix" values="0 0 0 0 0 0 0 0 0 0 0 0 0 0 0 0 0 0 0.17 0" />
      <feBlend mode="normal" in2="BackgroundImageFix" result="effect1_dropShadow_36_308" />
      <feBlend mode="normal" in="SourceGraphic" in2="effect1_dropShadow_36_308" result="shape" />
    </filter>
    <clipPath id="clip0_36_308">
      <rect width="35.6246" height="48.0518" fill="white"
        transform="translate(85.9884 65.5149) scale(1.0051) rotate(28.3372)" />
    </clipPath>
  </defs>
</svg>