<svg width="39" height="39" viewBox="0 0 39 39" fill="none" xmlns="http://www.w3.org/2000/svg">
<path d="M29.0504 24.9947C30.9599 24.8848 32.4187 23.2479 32.3089 21.3384L32.0494 16.8276C31.9394 14.9183 30.3025 13.4593 28.3931 13.5692L21.4773 13.967L18.9612 10.1348L16.9001 14.2303L9.98539 14.6281C8.07603 14.738 6.61723 16.3751 6.72692 18.2844L6.98641 22.7952C7.09626 24.7046 8.73322 26.1635 10.6427 26.0536L29.0504 24.9947Z" fill="#797B6E"/>
<path d="M21.244 16.7588L22.0945 16.7099L23.2768 20.4992L23.3045 20.4976L24.0929 16.5949L24.8811 16.5496L26.1118 20.3361L26.1395 20.3345L26.8795 16.4346L27.73 16.3857L26.5896 21.4047L25.7875 21.4509L24.5657 17.6985L24.538 17.7001L23.7545 21.5678L22.9455 21.6144L21.244 16.7588Z" fill="#E9E9E9"/>
<path d="M18.4013 16.8252C19.1481 16.7822 19.7567 16.99 20.2205 17.4559C20.6621 17.8953 20.9049 18.4988 20.9487 19.2594C20.992 20.0131 20.8196 20.6336 20.4318 21.1276C20.024 21.6367 19.4432 21.9129 18.6964 21.9559C17.9427 21.9993 17.3338 21.7845 16.8772 21.3252C16.4353 20.8788 16.1997 20.2819 16.1568 19.5351C16.1134 18.7814 16.2789 18.1614 16.6668 17.6673C17.0668 17.1448 17.6476 16.8685 18.4013 16.8252ZM18.4395 17.489C17.914 17.5192 17.5159 17.7156 17.2462 18.0918C16.9891 18.4466 16.8771 18.9109 16.9105 19.4917C16.9435 20.0657 17.108 20.5141 17.4041 20.837C17.7144 21.166 18.1327 21.3223 18.6583 21.2921C19.1838 21.2619 19.5818 21.0655 19.8458 20.7104C20.1033 20.3626 20.2219 19.8909 20.1881 19.3032C20.1538 18.7085 19.982 18.2536 19.6859 17.9307C19.3825 17.6012 18.965 17.4588 18.4395 17.489Z" fill="#E9E9E9"/>
<path d="M11.0608 17.3446L11.8214 17.3008L14.5565 20.8273L14.5841 20.8257L14.3729 17.154L15.1266 17.1107L15.4106 22.0478L14.6777 22.0899L11.9125 18.5235L11.8849 18.5251L12.0985 22.2383L11.3448 22.2817L11.0608 17.3446Z" fill="#E9E9E9"/>
</svg>
