<svg width="90" height="90" viewBox="0 0 90 90" fill="none" xmlns="http://www.w3.org/2000/svg">
<path d="M88.0184 46.9816C89.1128 23.2232 70.74 3.07597 46.9816 1.98156C23.2232 0.887154 3.07601 19.26 1.9816 43.0184C0.887193 66.7768 19.26 86.924 43.0184 88.0184C66.7768 89.1128 86.924 70.74 88.0184 46.9816Z" fill="black"/>
<path d="M46.6715 8.70688C26.6272 7.78356 9.62982 23.284 8.70648 43.3282C7.78316 63.3725 23.2835 80.3699 43.3278 81.2932C63.3721 82.2165 80.3695 66.7162 81.2928 46.6719C82.2161 26.6276 66.7157 9.63022 46.6715 8.70688Z" fill="#0E0E0E"/>
<path d="M46.6715 8.70688C26.6272 7.78356 9.62982 23.284 8.70648 43.3282C7.78316 63.3725 23.2835 80.3699 43.3278 81.2932C63.3721 82.2165 80.3695 66.7162 81.2928 46.6719C82.2161 26.6276 66.7157 9.63022 46.6715 8.70688Z" stroke="black" stroke-width="0.13241"/>
<rect x="-1.18807" y="1.45618" width="10.6409" height="6.29679" rx="3.14839" transform="matrix(-0.995611 0.100947 0.100947 0.995611 62.8082 25.9215)" stroke="#E8E8E8" stroke-width="2.6559"/>
<rect x="24.8003" y="26.3931" width="10.6505" height="11.131" rx="3.98385" transform="rotate(-1.21327 24.8003 26.3931)" stroke="#E8E8E8" stroke-width="2.6559"/>
<rect x="-0.743392" y="0.788647" width="8.13644" height="1.53161" rx="0.765805" transform="matrix(-1.00028 0.0295471 0.0295471 1.00028 47.8591 29.811)" fill="#E8E8E8" stroke="#E8E8E8" stroke-width="1.53161"/>
<path d="M61.3479 18.2013C62.0312 18.6132 62.9483 19.1708 63.5386 19.8528C64.1288 20.5347 64.3859 20.9709 64.3711 21.4521C64.327 22.8869 62.3418 22.8244 61.515 21.9288C60.6881 21.0333 57.4001 19.815 57.4001 19.815C56.6837 19.4864 56.2163 18.7901 56.223 18.0613C56.2351 16.7504 57.3542 16.536 58.4313 16.8615C59.5084 17.1871 60.6646 17.7895 61.3479 18.2013Z" fill="#E8E8E8"/>
<path d="M30.208 18.6503C29.4111 18.6893 28.3393 18.7461 27.4965 19.0671C26.6536 19.3881 26.2206 19.6505 26.0057 20.0813C25.3649 21.3659 27.1429 22.2511 28.2953 21.854C29.4477 21.4569 32.9205 21.9414 32.9205 21.9414C33.7071 21.9914 34.4486 21.5995 34.7879 20.9545C35.3982 19.7943 34.5141 19.0754 33.4113 18.8519C32.3085 18.6284 31.0049 18.6113 30.208 18.6503Z" fill="#E8E8E8"/>
<path d="M76.314 45.8837C73.5936 46.9458 60.4729 49.5593 58.7616 48.1358C57.1295 46.7782 56.5993 44.3033 55.56 42.5529C54.175 40.2206 50.3331 41.6423 50.1932 44.6804C50.1085 46.5179 51.1297 48.7386 51.7653 50.027C51.9695 50.4409 51.7896 50.9304 51.3696 51.1215C49.5766 51.9374 46.1567 53.7269 46.0284 56.5129C45.7146 63.3248 49.7862 63.6477 55.4547 63.2721C57.1108 63.1624 64.0234 62.1545 67.2551 61.1094C70.4868 60.0644 75.5767 57.8096 78.0285 55.3177" stroke="#E8E8E8" stroke-width="2.04913" stroke-linecap="round"/>
</svg>
