<svg width="79" height="79" viewBox="0 0 79 79" fill="none" xmlns="http://www.w3.org/2000/svg">
<path d="M50.0403 27.0335C49.9152 22.8323 46.8506 18.5122 41.0033 18.182C31.0797 17.6112 26.8128 26.9807 30.163 34.1845C21.5647 35.1097 20.6463 40.4056 21.068 43.9598C21.5385 47.9477 26.0909 51.2832 31.5412 50.0095L31.8297 63.8066C41.1036 63.9249 49.9916 62.6667 58.4365 59.8639L54.1108 45.878L51.2886 46.0122L53.6639 57.0504C48.1872 58.9675 42.3653 59.7883 36.243 59.6602L35.8713 56.1528L42.7311 55.4445L42.7176 53.3552L35.5828 53.4046L35.0669 48.5494C35.8564 48.0703 36.6034 47.5245 37.2999 46.9181L36.3849 46.0611C31.1975 48.9616 26.885 46.8634 26.52 43.4612C26.2331 40.8138 26.6934 37.1652 34.2462 34.8901L33.7168 34.0315C33.2217 34.0221 32.7349 34.032 32.2875 34.0345C31.2235 30.3815 32.2591 23.7739 40.5261 22.5254C48.1879 21.3681 49.2495 32.5912 43.9711 33.7341L44.0865 35.016C45.4779 34.7099 46.7533 34.0137 47.7633 33.009C48.7734 32.0043 49.4763 30.7327 49.7899 29.343C59.8015 32.7201 56.0483 42.4706 47.2085 42.8434L47.9548 44.55C57.1779 44.2977 61.0056 40.152 60.9382 35.7685C60.8819 31.9268 57.3413 28.0604 50.0403 27.0335Z" fill="black"/>
</svg>
