<svg width="109" height="109" viewBox="0 0 109 109" fill="none" xmlns="http://www.w3.org/2000/svg">
<g filter="url(#filter0_d_2052_305)">
<path d="M2.98207 51.5179C4.62903 23.0654 29.0295 1.33512 57.4821 2.98208C85.9346 4.62903 107.665 29.0295 106.018 57.4821C104.371 85.9346 79.9704 107.665 51.5179 106.018C23.0654 104.371 1.33512 79.9705 2.98207 51.5179Z" fill="#0E0E0E" shape-rendering="crispEdges"/>
<rect x="39.6265" y="19.1833" width="10.9313" height="11.018" rx="4.07533" transform="rotate(5.39053 39.6265 19.1833)" stroke="#E8E8E8" stroke-width="2.71688"/>
<rect x="-1.38227" y="1.34353" width="10.8852" height="6.82683" rx="3.41341" transform="matrix(-1.00328 -0.0142593 -0.0142593 1.00328 78.3348 22.3374)" stroke="#E8E8E8" stroke-width="2.71688"/>
<path d="M56.0398 25.4055L62.8136 25.6894C63.2409 25.7073 63.5732 26.068 63.5555 26.4953C63.5376 26.9227 63.1761 27.2551 62.7487 27.2372L55.9749 26.9533C55.5477 26.9352 55.2161 26.5738 55.234 26.1465C55.2521 25.7193 55.6126 25.3878 56.0398 25.4055Z" fill="#E8E8E8" stroke="#E8E8E8" stroke-width="1.58948"/>
<path d="M45.9105 11.3914C45.0923 11.4055 43.9916 11.4289 43.1171 11.7305C42.2426 12.0322 41.7902 12.2871 41.5559 12.7217C40.8572 14.0178 42.6511 14.9831 43.8454 14.6135C45.0397 14.2439 48.5842 14.8535 48.5842 14.8535C49.389 14.9304 50.1619 14.5528 50.5307 13.9025C51.1941 12.733 50.3111 11.9672 49.1878 11.7022C48.0646 11.4372 46.7287 11.3773 45.9105 11.3914Z" fill="#E8E8E8"/>
<path d="M76.925 11.3247C77.715 11.5379 78.7768 11.8289 79.5513 12.3347C80.3259 12.8405 80.7025 13.198 80.8238 13.6767C81.1853 15.104 79.2101 15.6028 78.142 14.9531C77.0739 14.3034 73.4877 14.0304 73.4877 14.0304C72.6885 13.9086 72.031 13.354 71.8319 12.6334C71.4737 11.3374 72.5167 10.81 73.6707 10.827C74.8247 10.8439 76.1349 11.1115 76.925 11.3247Z" fill="#E8E8E8"/>
</g>
<defs>
<filter id="filter0_d_2052_305" x="-1.16291" y="0" width="111.326" height="111.326" filterUnits="userSpaceOnUse" color-interpolation-filters="sRGB">
<feFlood flood-opacity="0" result="BackgroundImageFix"/>
<feColorMatrix in="SourceAlpha" type="matrix" values="0 0 0 0 0 0 0 0 0 0 0 0 0 0 0 0 0 0 127 0" result="hardAlpha"/>
<feOffset dy="1.15899"/>
<feGaussianBlur stdDeviation="0.579494"/>
<feComposite in2="hardAlpha" operator="out"/>
<feColorMatrix type="matrix" values="0 0 0 0 0 0 0 0 0 0 0 0 0 0 0 0 0 0 0.25 0"/>
<feBlend mode="normal" in2="BackgroundImageFix" result="effect1_dropShadow_2052_305"/>
<feBlend mode="normal" in="SourceGraphic" in2="effect1_dropShadow_2052_305" result="shape"/>
</filter>
</defs>
</svg>
